<?xml version="1.0" standalone="no"?>
<!DOCTYPE svg PUBLIC "-//W3C//DTD SVG 20010904//EN"
 "http://www.w3.org/TR/2001/REC-SVG-20010904/DTD/svg10.dtd">
<svg version="1.0" xmlns="http://www.w3.org/2000/svg"
 width="273.000000pt" height="256.000000pt" viewBox="0 0 273.000000 256.000000"
 preserveAspectRatio="xMidYMid meet">

<g transform="translate(0.000000,256.000000) scale(0.100000,-0.100000)"
fill="#000000" stroke="none">
<path d="M1355 2552 c-139 -12 -217 -46 -298 -131 -78 -82 -118 -203 -87 -262
13 -22 80 -59 110 -59 44 0 77 28 100 85 12 30 37 68 56 84 105 93 294 47 294
-71 0 -22 -5 -48 -10 -59 -14 -26 -75 -55 -135 -64 -64 -9 -124 -65 -127 -116
-3 -73 5 -185 14 -196 7 -9 41 -13 104 -13 104 0 114 6 114 73 0 40 8 47 72
71 67 25 141 95 177 168 27 52 31 72 31 138 0 66 -4 86 -31 138 -36 73 -101
134 -184 173 -61 29 -146 46 -200 41z"/>
<path d="M1305 1642 c-39 -33 -55 -66 -55 -115 0 -62 20 -100 64 -121 94 -44
186 19 186 128 0 43 -4 53 -39 87 -34 35 -44 39 -87 39 -31 -1 -56 -7 -69 -18z"/>
<path d="M600 1169 c-173 -7 -223 -18 -345 -75 -146 -68 -255 -243 -255 -408
0 -71 27 -182 60 -245 33 -65 115 -147 176 -177 l54 -26 0 -72 c0 -85 22 -130
75 -152 48 -20 391 -20 438 0 54 23 80 59 85 121 l4 55 489 0 489 0 0 -58 c0
-63 18 -94 67 -113 43 -16 383 -24 427 -9 57 18 76 57 76 155 l0 80 43 18 c69
28 153 119 200 216 35 73 41 96 45 165 7 147 -45 282 -147 380 -66 62 -171
118 -254 136 -67 13 -1444 21 -1727 9z m1778 -192 c117 -61 194 -177 195 -290
1 -134 -71 -246 -196 -303 l-62 -29 -932 -3 c-1032 -4 -989 -7 -1089 60 -117
79 -167 242 -120 386 31 92 130 175 241 203 17 4 453 6 970 6 l940 -2 53 -28z
m-78 -823 l0 -34 -140 0 -140 0 0 33 c0 19 2 36 4 38 2 2 65 3 140 1 l136 -3
0 -35z m-1562 -1 c-3 -34 -6 -38 -30 -37 -16 0 -82 1 -148 2 l-120 2 0 35 0
35 151 0 150 0 -3 -37z"/>
<path d="M540 881 c-109 -35 -182 -131 -165 -218 9 -48 46 -105 91 -139 52
-40 149 -45 214 -12 115 59 146 239 54 319 -50 44 -141 67 -194 50z m106 -109
c51 -41 55 -107 9 -156 -19 -21 -33 -26 -69 -26 -37 0 -48 5 -70 31 -14 17
-29 41 -32 54 -7 28 17 78 48 99 30 21 88 20 114 -2z"/>
<path d="M2128 782 c-31 -18 -58 -67 -58 -104 0 -12 9 -38 20 -56 51 -83 172
-60 201 38 29 95 -79 175 -163 122z"/>
<path d="M1710 763 c-25 -22 -33 -39 -37 -74 -6 -55 7 -83 49 -105 88 -46 193
35 168 128 -14 49 -42 70 -98 76 -43 4 -53 1 -82 -25z"/>
</g>
</svg>
